<?xml version="1.0" encoding="UTF-8" standalone="no"?>
<!DOCTYPE svg PUBLIC "-//W3C//DTD SVG 1.1//EN"
 "http://www.w3.org/Graphics/SVG/1.1/DTD/svg11.dtd">
<!-- Generated by graphviz version 2.40.1 (20161225.0304)
 -->
<!-- Title: dependencies Pages: 1 -->
<svg width="652pt" height="284pt"
 viewBox="0.00 0.00 652.00 284.00" xmlns="http://www.w3.org/2000/svg" xmlns:xlink="http://www.w3.org/1999/xlink">
<g id="graph0" class="graph" transform="scale(1 1) rotate(0) translate(4 280)">
<title>dependencies</title>
<polygon fill="#ffffff" stroke="transparent" points="-4,4 -4,-280 648,-280 648,4 -4,4"/>
<text text-anchor="start" x="301.0091" y="-42.4" font-family="sans-serif" font-weight="bold" font-size="14.00" fill="#000000">Legend</text>
<polygon fill="#ffffb3" stroke="transparent" points="88,-10 88,-30 108,-30 108,-10 88,-10"/>
<text text-anchor="start" x="111.629" y="-15.4" font-family="sans-serif" font-size="14.00" fill="#000000"> &#160;Declarations</text>
<polygon fill="#8dd3c7" stroke="transparent" points="201,-10 201,-30 221,-30 221,-10 201,-10"/>
<text text-anchor="start" x="224.7251" y="-15.4" font-family="sans-serif" font-size="14.00" fill="#000000"> &#160;Module</text>
<polygon fill="#80b1d3" stroke="transparent" points="287,-10 287,-30 307,-30 307,-10 287,-10"/>
<text text-anchor="start" x="310.7812" y="-15.4" font-family="sans-serif" font-size="14.00" fill="#000000"> &#160;Bootstrap</text>
<polygon fill="#fdb462" stroke="transparent" points="384,-10 384,-30 404,-30 404,-10 384,-10"/>
<text text-anchor="start" x="407.6732" y="-15.4" font-family="sans-serif" font-size="14.00" fill="#000000"> &#160;Providers</text>
<polygon fill="#fb8072" stroke="transparent" points="480,-10 480,-30 500,-30 500,-10 480,-10"/>
<text text-anchor="start" x="503.7258" y="-15.4" font-family="sans-serif" font-size="14.00" fill="#000000"> &#160;Exports</text>
<g id="clust1" class="cluster">
<title>cluster_SharedModule</title>
<polygon fill="none" stroke="#000000" stroke-dasharray="1,5" points="8,-70 8,-268 636,-268 636,-70 8,-70"/>
</g>
<g id="clust2" class="cluster">
<title>cluster_SharedModule_declarations</title>
<polygon fill="none" stroke="#000000" points="16,-78 16,-130 628,-130 628,-78 16,-78"/>
</g>
<g id="clust8" class="cluster">
<title>cluster_SharedModule_exports</title>
<polygon fill="none" stroke="#000000" points="84,-208 84,-260 521,-260 521,-208 84,-208"/>
</g>
<!-- CardClassroomComponent -->
<g id="node1" class="node">
<title>CardClassroomComponent</title>
<polygon fill="#ffffb3" stroke="#000000" points="620.4269,-122 451.5731,-122 451.5731,-86 620.4269,-86 620.4269,-122"/>
<text text-anchor="middle" x="536" y="-99.8" font-family="Times,serif" font-size="14.00" fill="#000000">CardClassroomComponent</text>
</g>
<!-- SharedModule -->
<g id="node5" class="node">
<title>SharedModule</title>
<polygon fill="#8dd3c7" stroke="#000000" points="353.4231,-187 350.4231,-191 329.4231,-191 326.4231,-187 254.5769,-187 254.5769,-151 353.4231,-151 353.4231,-187"/>
<text text-anchor="middle" x="304" y="-164.8" font-family="Times,serif" font-size="14.00" fill="#000000">SharedModule</text>
</g>
<!-- CardClassroomComponent&#45;&gt;SharedModule -->
<g id="edge1" class="edge">
<title>CardClassroomComponent&#45;&gt;SharedModule</title>
<path fill="none" stroke="#000000" d="M482.2043,-122.0225C482.2043,-139.3734 482.2043,-163 482.2043,-163 482.2043,-163 363.6398,-163 363.6398,-163"/>
<polygon fill="#000000" stroke="#000000" points="363.6399,-159.5001 353.6398,-163 363.6398,-166.5001 363.6399,-159.5001"/>
</g>
<!-- HeaderComponent -->
<g id="node2" class="node">
<title>HeaderComponent</title>
<polygon fill="#ffffb3" stroke="#000000" points="433.7437,-122 312.2563,-122 312.2563,-86 433.7437,-86 433.7437,-122"/>
<text text-anchor="middle" x="373" y="-99.8" font-family="Times,serif" font-size="14.00" fill="#000000">HeaderComponent</text>
</g>
<!-- HeaderComponent&#45;&gt;SharedModule -->
<g id="edge2" class="edge">
<title>HeaderComponent&#45;&gt;SharedModule</title>
<path fill="none" stroke="#000000" d="M332.6697,-122.1061C332.6697,-122.1061 332.6697,-140.991 332.6697,-140.991"/>
<polygon fill="#000000" stroke="#000000" points="329.1698,-140.9909 332.6697,-150.991 336.1698,-140.991 329.1698,-140.9909"/>
</g>
<!-- LoadingComponent -->
<g id="node3" class="node">
<title>LoadingComponent</title>
<polygon fill="#ffffb3" stroke="#000000" points="293.9902,-122 166.0098,-122 166.0098,-86 293.9902,-86 293.9902,-122"/>
<text text-anchor="middle" x="230" y="-99.8" font-family="Times,serif" font-size="14.00" fill="#000000">LoadingComponent</text>
</g>
<!-- LoadingComponent&#45;&gt;SharedModule -->
<g id="edge3" class="edge">
<title>LoadingComponent&#45;&gt;SharedModule</title>
<path fill="none" stroke="#000000" d="M274.392,-122.1061C274.392,-122.1061 274.392,-140.991 274.392,-140.991"/>
<polygon fill="#000000" stroke="#000000" points="270.8921,-140.9909 274.392,-150.991 277.8921,-140.991 270.8921,-140.9909"/>
</g>
<!-- SidebarComponent -->
<g id="node4" class="node">
<title>SidebarComponent</title>
<polygon fill="#ffffb3" stroke="#000000" points="148.0954,-122 23.9046,-122 23.9046,-86 148.0954,-86 148.0954,-122"/>
<text text-anchor="middle" x="86" y="-99.8" font-family="Times,serif" font-size="14.00" fill="#000000">SidebarComponent</text>
</g>
<!-- SidebarComponent&#45;&gt;SharedModule -->
<g id="edge4" class="edge">
<title>SidebarComponent&#45;&gt;SharedModule</title>
<path fill="none" stroke="#000000" d="M120.125,-122.0225C120.125,-139.3734 120.125,-163 120.125,-163 120.125,-163 244.7249,-163 244.7249,-163"/>
<polygon fill="#000000" stroke="#000000" points="244.7249,-166.5001 254.7249,-163 244.7248,-159.5001 244.7249,-166.5001"/>
</g>
<!-- HeaderComponent  -->
<g id="node6" class="node">
<title>HeaderComponent </title>
<polygon fill="#fb8072" stroke="#000000" points="512.7436,-252 387.2564,-252 387.2564,-216 512.7436,-216 512.7436,-252"/>
<text text-anchor="middle" x="450" y="-229.8" font-family="Times,serif" font-size="14.00" fill="#000000">HeaderComponent </text>
</g>
<!-- SharedModule&#45;&gt;HeaderComponent  -->
<g id="edge5" class="edge">
<title>SharedModule&#45;&gt;HeaderComponent </title>
<path fill="none" stroke="#000000" stroke-dasharray="5,2" d="M353.2551,-175C381.1927,-175 410.625,-175 410.625,-175 410.625,-175 410.625,-205.9775 410.625,-205.9775"/>
<polygon fill="#000000" stroke="#000000" points="407.1251,-205.9774 410.625,-215.9775 414.1251,-205.9775 407.1251,-205.9774"/>
</g>
<!-- LoadingComponent  -->
<g id="node7" class="node">
<title>LoadingComponent </title>
<polygon fill="#fb8072" stroke="#000000" points="369.9911,-252 238.0089,-252 238.0089,-216 369.9911,-216 369.9911,-252"/>
<text text-anchor="middle" x="304" y="-229.8" font-family="Times,serif" font-size="14.00" fill="#000000">LoadingComponent </text>
</g>
<!-- SharedModule&#45;&gt;LoadingComponent  -->
<g id="edge6" class="edge">
<title>SharedModule&#45;&gt;LoadingComponent </title>
<path fill="none" stroke="#000000" stroke-dasharray="5,2" d="M304,-187.1061C304,-187.1061 304,-205.991 304,-205.991"/>
<polygon fill="#000000" stroke="#000000" points="300.5001,-205.9909 304,-215.991 307.5001,-205.991 300.5001,-205.9909"/>
</g>
<!-- SidebarComponent  -->
<g id="node8" class="node">
<title>SidebarComponent </title>
<polygon fill="#fb8072" stroke="#000000" points="219.596,-252 92.404,-252 92.404,-216 219.596,-216 219.596,-252"/>
<text text-anchor="middle" x="156" y="-229.8" font-family="Times,serif" font-size="14.00" fill="#000000">SidebarComponent </text>
</g>
<!-- SharedModule&#45;&gt;SidebarComponent  -->
<g id="edge7" class="edge">
<title>SharedModule&#45;&gt;SidebarComponent </title>
<path fill="none" stroke="#000000" stroke-dasharray="5,2" d="M254.6235,-175C224.9518,-175 192.9013,-175 192.9013,-175 192.9013,-175 192.9013,-205.9775 192.9013,-205.9775"/>
<polygon fill="#000000" stroke="#000000" points="189.4014,-205.9774 192.9013,-215.9775 196.4014,-205.9775 189.4014,-205.9774"/>
</g>
</g>
</svg>
